<svg xmlns="http://www.w3.org/2000/svg" viewBox="0 0 24 24" width="24" height="24">
  <defs>
    <linearGradient id="logo-grad" x1="0%" y1="0%" x2="100%" y2="100%">
      <stop offset="0%" stop-color="#10b981" />
      <stop offset="100%" stop-color="#6366f1" />
    </linearGradient>
  </defs>
  <path d="M12 2l2.4 4.9 5.4.8-3.9 3.8.9 5.4-4.8-2.5-4.8 2.5.9-5.4-3.9-3.8 5.4-.8L12 2zm-5 11l.8 1.6 1.8.3-1.3 1.3.3 1.8-1.6-.9-1.6.9.3-1.8-1.3-1.3 1.8-.3L7 13zm11-9l.8 1.6 1.8.3-1.3 1.3.3 1.8-1.6-.9-1.6.9.3-1.8-1.3-1.3 1.8-.3L18 4z" fill="url(#logo-grad)"/>
</svg>
