<svg xmlns="http://www.w3.org/2000/svg" viewBox="0 0 24 24" width="24" height="24">
  <defs>
    <linearGradient id="gem-grad" x1="0%" y1="0%" x2="100%" y2="100%">
      <stop offset="0%" stop-color="#fbbf24" />
      <stop offset="100%" stop-color="#d97706" />
    </linearGradient>
  </defs>
  <path d="M16 2H8L2 9l10 13L22 9l-6-7zm-4.3 2.5h2.6l3.4 4H6.3l3.4-4zM4.5 9.5h4.8l-4.2 6.8L4.5 9.5zm6.8.5L8.7 18.2l-3.3-5.3L11.3 10zm1.4 8.2L10 10.3l4-2.8 1.3 2.5-2.7 8.2zm1-8.2l2.6 8.2 4-8.2h-6.6zm3.5-3l1.8 3h-4.3l2.5-3z" fill="url(#gem-grad)"/>
</svg>
